<?xml version="1.0" standalone="no"?>
<!DOCTYPE svg PUBLIC "-//W3C//DTD SVG 20010904//EN"
 "http://www.w3.org/TR/2001/REC-SVG-20010904/DTD/svg10.dtd">
<svg version="1.0" xmlns="http://www.w3.org/2000/svg"
 width="1321.000000pt" height="1321.000000pt" viewBox="0 0 1321.000000 1321.000000"
 preserveAspectRatio="xMidYMid meet">
<metadata>
Created by potrace 1.14, written by Peter Selinger 2001-2017
</metadata>
<g transform="translate(0.000000,1321.000000) scale(0.100000,-0.100000)"
fill="#000000" stroke="none">
<path d="M7067 10124 c-3 -4 -23 -10 -44 -15 -88 -18 -122 -30 -202 -70 -157
-79 -293 -210 -374 -362 -46 -85 -65 -148 -72 -250 -17 -219 60 -369 230 -447
129 -60 260 -81 505 -81 72 0 122 -4 126 -10 16 -27 -91 -260 -174 -379 -92
-131 -251 -297 -387 -403 -73 -56 -279 -197 -290 -197 -3 0 -23 -11 -45 -25
-22 -14 -43 -25 -48 -25 -5 0 -28 33 -52 73 -137 229 -346 434 -594 581 -43
25 -79 46 -81 46 -2 0 -37 16 -77 35 -134 63 -279 115 -423 149 -38 10 -86 21
-105 26 -65 16 -145 30 -250 44 -305 41 -363 43 -1861 39 l-907 -3 -10 -27
c-19 -51 -44 -174 -38 -189 3 -8 18 -14 32 -14 15 0 41 -4 58 -9 17 -6 69 -17
116 -26 216 -41 329 -119 359 -247 11 -51 10 -65 -34 -253 -25 -106 -40 -171
-74 -325 -12 -52 -26 -111 -31 -130 -5 -19 -16 -69 -25 -110 -8 -41 -20 -91
-25 -110 -5 -19 -16 -69 -25 -110 -8 -41 -20 -91 -25 -110 -5 -19 -16 -66 -25
-105 -8 -38 -20 -88 -25 -110 -5 -22 -16 -74 -25 -115 -9 -41 -20 -91 -25
-110 -5 -19 -16 -66 -25 -105 -21 -94 -35 -153 -45 -195 -5 -19 -16 -69 -25
-110 -8 -41 -20 -91 -25 -110 -5 -19 -16 -66 -25 -105 -21 -94 -35 -153 -45
-195 -5 -19 -16 -69 -25 -110 -8 -41 -20 -91 -25 -110 -5 -19 -21 -87 -35
-150 -27 -119 -35 -156 -80 -350 -84 -364 -111 -437 -193 -519 -79 -78 -141
-99 -403 -141 -37 -5 -88 -11 -115 -11 -27 -1 -62 -4 -79 -8 -32 -7 -42 -28
-65 -131 -6 -30 -14 -63 -17 -72 -4 -17 57 -18 1184 -18 1143 0 1536 7 1708
31 225 31 273 39 460 84 123 30 127 31 280 81 153 51 223 79 425 172 19 9 73
38 119 64 46 26 86 48 88 48 17 0 254 170 355 254 328 273 599 635 742 991 15
39 32 79 36 90 27 68 75 230 91 305 45 218 60 333 67 495 l7 150 55 -4 c99 -6
171 -54 206 -136 34 -80 28 -282 -15 -470 -5 -22 -17 -76 -26 -120 -9 -44 -20
-96 -25 -115 -4 -19 -17 -80 -29 -135 -12 -55 -26 -116 -31 -135 -5 -19 -21
-87 -35 -150 -49 -216 -56 -245 -66 -290 -6 -25 -14 -61 -19 -80 -5 -19 -28
-116 -50 -215 -22 -99 -45 -196 -50 -215 -5 -19 -16 -66 -25 -105 -8 -38 -20
-88 -25 -110 -5 -22 -16 -71 -25 -110 -8 -38 -20 -88 -25 -110 -10 -42 -47
-205 -55 -242 l-5 -23 519 0 519 0 10 28 c5 15 14 50 20 77 6 28 18 79 26 115
8 36 22 97 31 135 26 114 36 158 45 195 10 40 54 232 76 335 8 39 19 86 24
105 5 19 16 67 25 105 21 94 35 153 45 195 5 19 16 69 25 110 24 111 65 290
75 330 5 19 16 69 25 110 9 41 25 111 35 155 10 44 26 116 35 160 34 166 30
159 150 261 141 119 311 222 450 270 66 23 97 28 181 29 92 0 106 -3 158 -29
167 -85 199 -255 116 -621 -5 -22 -12 -56 -16 -75 -3 -19 -15 -73 -25 -120
-11 -47 -27 -114 -35 -150 -23 -103 -35 -152 -44 -190 -5 -19 -20 -84 -34
-145 -14 -60 -35 -150 -46 -200 -12 -49 -24 -101 -26 -115 -3 -14 -9 -41 -14
-60 -5 -19 -23 -98 -40 -175 -17 -77 -35 -156 -40 -175 -5 -19 -21 -87 -35
-150 -15 -63 -30 -131 -35 -150 -5 -19 -17 -69 -25 -110 -17 -78 -26 -117 -44
-186 -6 -23 -11 -46 -11 -53 0 -8 136 -11 522 -9 l522 3 14 60 c7 33 17 76 22
95 5 19 16 67 25 105 9 39 20 86 25 105 13 51 26 106 45 190 9 41 20 91 25
110 4 19 16 69 25 110 9 41 20 91 25 110 4 19 13 58 18 86 6 28 20 89 31 135
11 46 27 118 36 159 9 41 20 91 25 110 5 19 16 67 25 105 26 116 41 181 93
405 22 91 45 192 51 225 41 200 55 222 209 342 244 191 390 257 562 257 84 0
101 -3 148 -27 56 -29 103 -85 130 -154 19 -48 23 -318 5 -378 -6 -22 -25 -98
-43 -170 -31 -128 -52 -209 -70 -272 -6 -18 -14 -48 -19 -65 -5 -18 -28 -98
-51 -178 -23 -80 -46 -158 -50 -175 -72 -251 -103 -447 -104 -650 0 -161 1
-174 28 -250 28 -81 96 -194 138 -230 180 -155 358 -215 633 -215 166 0 332
28 500 85 48 16 248 91 290 109 39 17 106 43 126 49 10 3 23 36 38 94 12 48
26 102 31 119 13 41 13 67 -1 58 -10 -6 -36 -14 -168 -50 -76 -21 -228 -31
-321 -22 -82 8 -132 28 -184 76 -105 98 -96 324 29 787 8 28 26 95 40 150 15
55 30 114 35 130 5 17 20 73 34 125 143 541 151 574 166 715 30 280 -7 468
-123 615 -67 84 -192 173 -284 200 -21 6 -63 18 -93 28 -72 21 -424 24 -515 4
-214 -47 -389 -119 -559 -229 -71 -46 -323 -234 -426 -318 -65 -53 -74 -49
-91 40 -14 80 -76 208 -130 271 -107 124 -204 178 -424 236 -67 18 -389 17
-470 -1 -161 -35 -195 -44 -265 -68 -98 -34 -283 -129 -368 -189 -77 -55 -217
-163 -247 -191 -11 -10 -46 -38 -77 -61 -32 -24 -58 -46 -58 -51 0 -14 -39
-20 -48 -7 -5 6 -14 27 -21 46 -81 218 -178 342 -332 420 -93 48 -302 90 -445
90 -77 0 -268 -26 -344 -46 -30 -9 -80 -22 -110 -30 -30 -8 -71 -19 -90 -24
-49 -13 -47 -14 -53 28 -3 20 -9 55 -14 77 -9 43 -7 75 7 75 4 0 54 26 111 58
352 197 639 423 848 668 116 136 113 133 180 232 236 351 338 718 287 1032
-39 235 -135 385 -297 463 -41 19 -92 40 -114 45 -22 6 -59 15 -81 21 -44 12
-266 15 -277 5z m-2787 -1549 c151 -23 184 -33 310 -92 195 -93 367 -274 465
-488 73 -159 111 -301 135 -505 24 -208 20 -565 -10 -757 -25 -160 -32 -203
-46 -278 -8 -44 -18 -96 -23 -115 -5 -19 -17 -66 -26 -105 -9 -38 -20 -79 -25
-90 -4 -11 -16 -47 -25 -80 -17 -62 -76 -225 -101 -282 -8 -17 -14 -34 -14
-38 0 -15 -111 -236 -162 -322 -106 -180 -297 -407 -443 -526 -60 -49 -225
-157 -277 -180 -123 -56 -146 -66 -213 -85 -135 -39 -158 -44 -279 -53 -215
-16 -426 10 -541 68 -47 24 -114 94 -138 143 -29 61 -28 229 1 345 11 44 30
118 42 165 11 47 25 101 30 120 5 19 17 69 26 110 8 41 24 111 34 155 33 143
68 298 85 375 9 41 20 91 25 110 10 38 22 90 45 193 8 37 22 97 30 135 9 37
20 86 25 110 6 23 15 63 21 90 5 26 14 63 19 82 5 19 16 69 25 110 8 41 20 91
25 110 5 19 16 69 25 110 8 41 20 91 25 110 14 54 41 175 75 330 16 73 23 103
44 185 5 22 17 74 26 115 8 41 20 91 25 110 5 19 16 69 25 110 9 41 20 91 25
110 5 19 17 69 26 110 9 41 29 122 43 180 l26 105 85 6 c174 11 435 8 530 -6z"/>
</g>
</svg>
