<?xml version="1.0" encoding="UTF-8"?>
<!DOCTYPE svg PUBLIC "-//W3C//DTD SVG 1.1//EN" "http://www.w3.org/Graphics/SVG/1.1/DTD/svg11.dtd">
<svg xmlns="http://www.w3.org/2000/svg" version="1.1" width="2362px" height="643px" style="shape-rendering:geometricPrecision; text-rendering:geometricPrecision; image-rendering:optimizeQuality; fill-rule:evenodd; clip-rule:evenodd" xmlns:xlink="http://www.w3.org/1999/xlink">
<g><path style="opacity:0.963" fill="#fefffe" d="M 2240.5,642.5 C 2232.17,642.5 2223.83,642.5 2215.5,642.5C 2215.39,641.883 2215.06,641.383 2214.5,641C 2201.17,639.857 2188.83,637.19 2177.5,633C 2171.93,629.111 2166.1,625.611 2160,622.5C 2144.73,629.061 2128.9,634.061 2112.5,637.5C 2102.28,638.081 2092.12,639.081 2082,640.5C 2069.07,639.326 2056.24,637.493 2043.5,635C 2043.83,634.667 2044.17,634.333 2044.5,634C 2021.53,626.548 2004.87,611.714 1994.5,589.5C 1972.52,609.747 1947.52,625.414 1919.5,636.5C 1911.92,637.562 1904.92,639.562 1898.5,642.5C 1881.83,642.5 1865.17,642.5 1848.5,642.5C 1848.39,641.883 1848.06,641.383 1847.5,641C 1838.71,639.586 1830.05,637.419 1821.5,634.5C 1814.74,631.088 1808.08,627.588 1801.5,624C 1798.61,620.514 1794.78,617.348 1790,614.5C 1781.8,618.583 1773.3,622.25 1764.5,625.5C 1750.9,629.361 1737.9,633.195 1725.5,637C 1701.72,640.352 1677.72,641.352 1653.5,640C 1631.88,636.855 1613.54,627.355 1598.5,611.5C 1595.5,606.013 1592.33,600.679 1589,595.5C 1587.33,591.702 1586.16,587.702 1585.5,583.5C 1584.17,570.167 1584.17,556.833 1585.5,543.5C 1588.95,525.876 1592.45,508.209 1596,490.5C 1602.88,463.052 1609.55,436.385 1616,410.5C 1616.75,405.511 1617.42,400.511 1618,395.5C 1618.33,395.833 1618.67,396.167 1619,396.5C 1622.16,382.15 1625.33,367.15 1628.5,351.5C 1629.83,344.675 1631.83,338.175 1634.5,332C 1614.17,331.333 1593.83,331.333 1573.5,332C 1574.92,333.53 1575.92,335.363 1576.5,337.5C 1583.6,375.215 1572.6,406.549 1543.5,431.5C 1531.85,439.944 1519.51,447.277 1506.5,453.5C 1462.64,470.465 1417.98,481.631 1372.5,487C 1372.83,487.333 1373.17,487.667 1373.5,488C 1363.51,488.749 1353.51,489.249 1343.5,489.5C 1344.78,509.263 1348.45,528.43 1354.5,547C 1360.27,561.76 1369.93,573.093 1383.5,581C 1385.17,581.333 1386.83,581.667 1388.5,582C 1388.17,582.333 1387.83,582.667 1387.5,583C 1397.98,586.233 1408.64,588.4 1419.5,589.5C 1465.8,588.349 1503.8,570.015 1533.5,534.5C 1536.61,531.263 1538.95,527.596 1540.5,523.5C 1542.59,523.318 1544.59,523.652 1546.5,524.5C 1555.32,531.517 1563.32,538.517 1570.5,545.5C 1533.26,597.537 1482.59,629.87 1418.5,642.5C 1394.83,642.5 1371.17,642.5 1347.5,642.5C 1347.39,641.883 1347.06,641.383 1346.5,641C 1303.84,636.067 1269.67,616.234 1244,581.5C 1242.55,588.134 1240.72,594.634 1238.5,601C 1239.02,601.561 1239.36,602.228 1239.5,603C 1237.82,605.547 1237.16,608.38 1237.5,611.5C 1233.15,612.47 1228.81,613.637 1224.5,615C 1203.6,623.982 1182.94,631.315 1162.5,637C 1141.04,639.512 1119.71,638.846 1098.5,635C 1098.83,634.667 1099.17,634.333 1099.5,634C 1073.01,626.795 1055.18,610.962 1046,586.5C 1044.2,570.354 1044.03,554.188 1045.5,538C 1049.15,519.828 1052.98,501.661 1057,483.5C 1057.33,483.833 1057.67,484.167 1058,484.5C 1064.03,459.383 1071.03,434.383 1079,409.5C 1079.91,403.527 1080.57,397.527 1081,391.5C 1081.33,391.833 1081.67,392.167 1082,392.5C 1083.48,378.184 1082.48,364.851 1079,352.5C 1075.59,345.644 1069.75,341.478 1061.5,340C 1047.68,338.137 1034.68,340.47 1022.5,347C 1022.83,347.333 1023.17,347.667 1023.5,348C 1020.17,349.333 1016.83,350.667 1013.5,352C 1000.47,360.769 988.637,370.269 978,380.5C 975.277,388.599 973.277,397.266 972,406.5C 967.93,419.58 964.93,432.913 963,446.5C 962.667,446.167 962.333,445.833 962,445.5C 951.24,493.585 940.574,541.585 930,589.5C 926.207,604.348 922.374,619.015 918.5,633.5C 879.5,633.5 840.5,633.5 801.5,633.5C 803.49,622.985 805.323,612.651 807,602.5C 812.532,585.263 816.866,566.929 820,547.5C 822.412,539.105 824.746,530.772 827,522.5C 834.408,489.637 841.908,456.804 849.5,424C 852.629,407.022 855.629,390.022 858.5,373C 857.465,367.932 856.465,362.765 855.5,357.5C 850.351,344.534 840.351,338.534 825.5,339.5C 820.12,339.536 814.786,340.036 809.5,341C 787.929,349.064 767.763,361.897 749,379.5C 748.333,380.833 747.667,382.167 747,383.5C 728.59,465.554 709.423,548.554 689.5,632.5C 650.506,633.5 611.506,633.833 572.5,633.5C 580.176,594.638 589.01,555.971 599,517.5C 599.667,512.833 600.333,508.167 601,503.5C 611.637,461.137 621.303,418.47 630,375.5C 632.614,362.393 630.114,350.559 622.5,340C 620.286,338.727 617.953,337.727 615.5,337C 615.833,336.667 616.167,336.333 616.5,336C 612.181,334.854 607.848,334.187 603.5,334C 604.131,335.906 604.464,337.906 604.5,340C 602.908,349.383 602.075,358.883 602,368.5C 596.582,417.672 579.416,461.672 550.5,500.5C 510.938,553.442 459.938,589.942 397.5,610C 397.833,610.333 398.167,610.667 398.5,611C 383.007,615.381 367.341,619.381 351.5,623C 351.833,623.333 352.167,623.667 352.5,624C 326.255,628.325 299.922,631.325 273.5,633C 182.167,633.5 90.8339,633.667 -0.5,633.5C -0.5,627.5 -0.5,621.5 -0.5,615.5C 1.00271,611.956 2.66938,608.289 4.5,604.5C 14.4696,603.335 24.4696,602.502 34.5,602C 45.4501,600.289 55.4501,597.622 64.5,594C 71.6469,589.866 76.9803,583.366 80.5,574.5C 81.5671,571.466 82.7337,568.466 84,565.5C 110.527,450.732 137.027,336.065 163.5,221.5C 164.864,214.724 165.864,207.89 166.5,201C 166.498,197.648 166.165,194.482 165.5,191.5C 162.215,183.86 156.549,179.026 148.5,177C 148.833,176.667 149.167,176.333 149.5,176C 134.809,171.161 119.809,167.994 104.5,166.5C 105.762,160.907 106.762,155.24 107.5,149.5C 108.323,145.28 109.656,141.28 111.5,137.5C 200.165,136.333 288.831,136.167 377.5,137C 377.167,137.333 376.833,137.667 376.5,138C 389.212,138.448 401.879,139.448 414.5,141C 424.214,143.636 434.214,145.303 444.5,146C 444.167,146.333 443.833,146.667 443.5,147C 455.222,149.577 466.722,152.744 478,156.5C 516.914,170.25 549.414,194.417 575.5,229C 576.686,232.492 578.686,235.992 581.5,239.5C 582.429,240.689 582.762,242.022 582.5,243.5C 584.288,243.785 585.955,243.452 587.5,242.5C 621.208,224.619 648.708,199.952 670,168.5C 672.215,163.278 674.882,158.278 678,153.5C 679.966,147.122 681.799,141.455 683.5,136.5C 665.616,137.259 647.949,136.259 630.5,133.5C 595.311,122.384 582.644,99.0505 592.5,63.5C 595.449,55.6 598.949,47.9333 603,40.5C 603.333,40.8333 603.667,41.1667 604,41.5C 605.884,37.4433 608.384,33.7766 611.5,30.5C 621.2,20.935 631.534,13.2683 642.5,7.5C 648.124,5.51115 653.791,3.67782 659.5,2C 674.833,1.33333 690.167,1.33333 705.5,2C 722.255,6.05975 735.255,15.3931 744.5,30C 751.021,45.4476 754.688,61.4476 755.5,78C 753.684,104.392 746.851,129.225 735,152.5C 716.126,184.225 692.292,211.891 663.5,235.5C 653.088,243.743 642.254,251.41 631,258.5C 620.385,265.697 609.218,271.697 597.5,276.5C 597.562,282.478 598.895,288.144 601.5,293.5C 626.648,282.95 653.648,279.45 682.5,283C 686.167,283.333 689.833,283.667 693.5,284C 693.167,284.333 692.833,284.667 692.5,285C 697.043,285.386 701.376,286.552 705.5,288.5C 710.064,290.962 714.731,293.129 719.5,295C 723.182,299.658 727.848,303.991 733.5,308C 735.138,312.766 737.971,317.266 742,321.5C 742.333,322.833 742.667,324.167 743,325.5C 743.333,325.167 743.667,324.833 744,324.5C 745.859,330.676 748.026,336.676 750.5,342.5C 765.931,329.142 781.431,316.809 797,305.5C 801.793,302.915 806.627,300.415 811.5,298C 811.167,297.667 810.833,297.333 810.5,297C 820.776,292.084 831.442,288.084 842.5,285C 842.167,284.667 841.833,284.333 841.5,284C 850.998,282.898 860.331,281.231 869.5,279C 882.833,278.333 896.167,278.333 909.5,279C 930.323,281.747 947.989,290.914 962.5,306.5C 965.498,311.162 968.498,315.829 971.5,320.5C 972.308,322.423 972.808,324.423 973,326.5C 973.333,326.167 973.667,325.833 974,325.5C 976.133,330.904 977.3,336.571 977.5,342.5C 978.552,342.649 979.552,342.483 980.5,342C 1000.3,324.367 1021.63,308.867 1044.5,295.5C 1067.85,284.031 1092.52,278.031 1118.5,277.5C 1129.03,277.83 1139.36,278.996 1149.5,281C 1186.61,292.127 1204.95,317.127 1204.5,356C 1204.1,375.136 1200.94,393.636 1195,411.5C 1191.65,427.691 1187.15,444.191 1181.5,461C 1181.96,461.414 1182.29,461.914 1182.5,462.5C 1172.59,491.744 1165.59,522.41 1161.5,554.5C 1161.57,563.174 1163.9,571.174 1168.5,578.5C 1170.3,580.703 1172.63,581.869 1175.5,582C 1175.17,582.333 1174.83,582.667 1174.5,583C 1181.5,584.891 1188.5,586.391 1195.5,587.5C 1212.07,585.441 1227.73,582.274 1242.5,578C 1237.41,570.956 1233.24,563.456 1230,555.5C 1226.45,543.927 1223.45,532.261 1221,520.5C 1216.11,468.742 1226.95,420.742 1253.5,376.5C 1279.3,339.757 1312.97,312.757 1354.5,295.5C 1366.48,291.566 1377.81,287.733 1388.5,284C 1399.43,283.138 1410.09,281.472 1420.5,279C 1431.78,278.9 1442.94,278.067 1454,276.5C 1464.39,278.042 1474.89,278.876 1485.5,279C 1495.12,280.797 1504.79,282.63 1514.5,284.5C 1532.16,289.279 1547.49,297.279 1560.5,308.5C 1563.28,313.114 1566.62,317.281 1570.5,321C 1569.72,322.073 1569.89,323.24 1571,324.5C 1574.34,314.217 1577.17,303.884 1579.5,293.5C 1600.84,293.667 1622.17,293.5 1643.5,293C 1644,292.5 1644.5,292 1645,291.5C 1652.73,256.933 1660.89,222.599 1669.5,188.5C 1707.41,188.83 1745.24,188.496 1783,187.5C 1783.67,190.833 1783.67,194.167 1783,197.5C 1775.74,229.988 1768.57,261.654 1761.5,292.5C 1792.81,293.462 1824.15,293.796 1855.5,293.5C 1853.52,300.49 1851.52,307.49 1849.5,314.5C 1849.83,314.833 1850.17,315.167 1850.5,315.5C 1896.11,283.191 1947.78,271.691 2005.5,281C 2015.84,282.781 2025.84,285.781 2035.5,290C 2044.45,294.578 2053.29,299.412 2062,304.5C 2075.64,301.076 2088.81,298.242 2101.5,296C 2101.17,295.667 2100.83,295.333 2100.5,295C 2106.19,294.531 2111.86,293.864 2117.5,293C 2134.04,288.896 2150.04,285.396 2165.5,282.5C 2166.74,283.246 2168.07,283.579 2169.5,283.5C 2170.23,286.28 2170.9,289.113 2171.5,292C 2159.41,346.007 2146.41,399.674 2132.5,453C 2125.91,482.171 2119.41,511.338 2113,540.5C 2112.33,549.833 2112.33,559.167 2113,568.5C 2115.13,572.874 2117.63,577.04 2120.5,581C 2126.32,584.16 2132.32,585.993 2138.5,586.5C 2137.21,580.003 2136.54,573.336 2136.5,566.5C 2136.67,560.167 2136.83,553.833 2137,547.5C 2139.6,534.214 2141.93,520.881 2144,507.5C 2144.33,507.833 2144.67,508.167 2145,508.5C 2170.19,398.079 2195.52,287.746 2221,177.5C 2221.67,173.167 2221.67,168.833 2221,164.5C 2220.2,157.076 2217.37,150.576 2212.5,145C 2207.04,140.606 2201.04,137.273 2194.5,135C 2183.21,133.285 2171.88,132.118 2160.5,131.5C 2162.07,121.168 2164.07,111.168 2166.5,101.5C 2207.53,100.057 2249.86,97.8907 2293.5,95C 2309.5,94.6667 2325.5,94.3333 2341.5,94C 2345.67,91.9673 2349.67,92.134 2353.5,94.5C 2354.66,99.467 2354.83,104.467 2354,109.5C 2342.15,164.559 2329.15,220.892 2315,278.5C 2314.14,286.255 2312.81,293.922 2311,301.5C 2306.8,314.552 2303.8,327.885 2302,341.5C 2301.67,341.167 2301.33,340.833 2301,340.5C 2294.96,371.229 2287.79,401.729 2279.5,432C 2280.02,432.561 2280.36,433.228 2280.5,434C 2278.87,437.585 2278.04,441.419 2278,445.5C 2277.67,445.167 2277.33,444.833 2277,444.5C 2271.16,471.767 2264.82,499.101 2258,526.5C 2257.1,537.474 2255.93,547.641 2254.5,557C 2253.23,573.35 2260.23,584.017 2275.5,589C 2292.85,590.631 2309.85,589.298 2326.5,585C 2326.17,584.667 2325.83,584.333 2325.5,584C 2327.83,583.667 2330.17,583.333 2332.5,583C 2332.17,582.667 2331.83,582.333 2331.5,582C 2335.15,581.281 2338.81,580.781 2342.5,580.5C 2341.28,587.576 2339.28,594.409 2336.5,601C 2337.08,601.893 2337.41,602.893 2337.5,604C 2336.24,607.026 2335.24,610.192 2334.5,613.5C 2309.08,625.096 2282.75,633.929 2255.5,640C 2250.83,640.333 2246.17,640.667 2241.5,641C 2240.94,641.383 2240.61,641.883 2240.5,642.5 Z M 335.5,169.5 C 358.971,168.899 381.304,173.399 402.5,183C 424.602,196.334 440.602,214.667 450.5,238C 454.825,249.971 458.325,262.138 461,274.5C 461.729,292.232 462.896,307.899 464.5,321.5C 464.333,324.833 464.167,328.167 464,331.5C 463.667,330.5 463.333,329.5 463,328.5C 462.72,343.186 462.053,357.853 461,372.5C 457.246,393.964 452.746,414.631 447.5,434.5C 437.782,467.863 423.449,498.863 404.5,527.5C 388.098,549.162 369.431,566.662 348.5,580C 341.486,583.781 333.82,587.448 325.5,591C 311.663,595.296 297.663,598.296 283.5,600C 277.167,600.667 270.833,600.667 264.5,600C 250.656,599.032 237.989,596.032 226.5,591C 217.835,583.689 213.168,574.355 212.5,563C 213.695,557.26 214.528,551.427 215,545.5C 225.356,505.908 234.689,465.908 243,425.5C 256.629,368.538 269.962,309.871 283,249.5C 285.546,240.488 288.046,231.488 290.5,222.5C 290.392,221.558 290.059,220.725 289.5,220C 293.461,205.283 297.461,190.45 301.5,175.5C 301.32,174.446 300.987,173.446 300.5,172.5C 312.369,172.001 324.035,171.001 335.5,169.5 Z M 1374.5,351.5 C 1381.23,338.215 1390.23,326.715 1401.5,317C 1408.9,312.274 1416.9,309.107 1425.5,307.5C 1445.69,311.694 1457.36,324.027 1460.5,344.5C 1464.74,363.057 1464.24,381.391 1459,399.5C 1452.28,417.235 1440.45,430.735 1423.5,440C 1411.97,444.783 1399.64,449.116 1386.5,453C 1373.64,455.298 1359.97,457.131 1345.5,458.5C 1348.37,420.949 1358.04,385.282 1374.5,351.5 Z M 1980.5,315.5 C 1997.37,313.202 2011.87,317.869 2024,329.5C 2036.67,348.538 2038.67,368.538 2030,389.5C 2025.67,410.142 2021.34,430.808 2017,451.5C 2013.17,465.158 2009.5,478.825 2006,492.5C 2002.01,511.476 1997.84,530.476 1993.5,549.5C 1992.52,553.989 1990.18,557.489 1986.5,560C 1986.83,560.333 1987.17,560.667 1987.5,561C 1977.48,567.169 1968.48,573.835 1960.5,581C 1939.47,590.302 1919.8,589.136 1901.5,577.5C 1896.56,573.398 1892.56,568.565 1889.5,563C 1889.96,562.586 1890.29,562.086 1890.5,561.5C 1886.79,555.367 1884.45,548.7 1883.5,541.5C 1879.72,518.214 1879.56,494.881 1883,471.5C 1887.65,440.833 1895.65,411.833 1907,384.5C 1911.14,375.367 1916.31,366.867 1922.5,359C 1922.17,358.667 1921.83,358.333 1921.5,358C 1930.01,347.69 1938.67,338.19 1947.5,329.5C 1957.35,321.675 1968.35,317.008 1980.5,315.5 Z M 1751.5,331.5 C 1777.84,331.333 1804.17,331.5 1830.5,332C 1773.12,387.059 1747.96,454.892 1755,535.5C 1756.2,546.418 1758.54,557.084 1762,567.5C 1764.43,572.19 1766.09,577.19 1767,582.5C 1767.33,582.167 1767.67,581.833 1768,581.5C 1768.16,583.676 1769,585.509 1770.5,587C 1757.03,589.447 1743.37,590.114 1729.5,589C 1725.25,587.595 1720.92,586.262 1716.5,585C 1716.83,584.667 1717.17,584.333 1717.5,584C 1710.63,582.102 1706.63,577.602 1705.5,570.5C 1703.81,555.062 1704.81,539.895 1708.5,525C 1708.41,523.893 1708.08,522.893 1707.5,522C 1720.92,470.714 1732.75,419.547 1743,368.5C 1746.13,357.632 1748.8,346.632 1751,335.5C 1752.51,334.436 1752.68,333.103 1751.5,331.5 Z"/></g>
<g><path style="opacity:0.004" fill="#fefffe" d="M 165.5,191.5 C 164.833,192.167 164.833,192.167 165.5,191.5 Z"/></g>
<g><path style="opacity:0.004" fill="#fefffe" d="M 550.5,500.5 C 551.833,501.167 551.833,501.167 550.5,500.5 Z"/></g>
</svg>
