<?xml version="1.0" standalone="no"?>
<!DOCTYPE svg PUBLIC "-//W3C//DTD SVG 20010904//EN"
 "http://www.w3.org/TR/2001/REC-SVG-20010904/DTD/svg10.dtd">
<svg version="1.0" xmlns="http://www.w3.org/2000/svg"
 width="1142.000000pt" height="300.000000pt" viewBox="0 0 1142.000000 300.000000"
 preserveAspectRatio="xMidYMid meet">

<g transform="translate(0.000000,300.000000) scale(0.100000,-0.100000)"
fill="#000000" stroke="none">
<path d="M3305 2946 c-113 -36 -217 -124 -263 -223 -35 -77 -37 -177 -4 -240
42 -81 146 -123 302 -123 48 0 89 -3 93 -6 8 -9 -20 -77 -62 -149 -48 -83
-178 -210 -290 -284 -51 -33 -96 -61 -100 -61 -4 0 -15 15 -25 33 -133 229
-405 383 -764 432 -91 12 -231 15 -726 15 l-614 0 -12 -51 c-7 -28 -9 -54 -4
-58 5 -5 38 -14 74 -20 103 -20 168 -53 186 -97 19 -45 22 -24 -67 -414 -196
-854 -291 -1259 -304 -1301 -19 -57 -63 -103 -118 -124 -23 -8 -87 -21 -142
-28 l-100 -12 -11 -52 c-6 -29 -9 -55 -6 -58 9 -8 937 -5 1192 5 263 10 382
28 565 87 406 130 723 411 866 768 41 103 77 268 86 389 l6 98 36 -6 c49 -7
91 -54 92 -104 4 -100 -8 -163 -161 -823 -50 -212 -90 -394 -90 -403 0 -14 25
-16 250 -16 250 0 250 0 260 22 10 25 66 264 180 768 39 173 74 323 76 333 9
28 123 115 209 158 171 85 291 48 303 -94 5 -62 -5 -115 -105 -547 -136 -590
-143 -622 -137 -631 3 -5 117 -9 254 -9 189 0 249 3 253 13 8 22 174 732 238
1022 22 98 31 112 119 180 125 96 250 135 320 98 86 -45 97 -155 36 -383 -19
-74 -53 -199 -75 -278 -88 -313 -78 -468 36 -573 138 -127 371 -132 663 -13
l95 39 16 65 c9 36 16 66 15 66 0 1 -32 -6 -71 -16 -138 -37 -249 -20 -280 41
-18 33 -19 121 -4 205 5 32 41 174 79 314 85 317 93 355 94 460 1 116 -21 178
-88 245 -76 78 -138 99 -291 99 -213 1 -320 -48 -611 -277 l-22 -18 -16 53
c-44 152 -156 230 -346 244 -136 10 -306 -35 -430 -114 -30 -19 -95 -66 -143
-105 -49 -38 -92 -66 -96 -61 -4 5 -16 32 -26 59 -25 68 -113 156 -180 179
-31 11 -93 20 -160 23 -96 4 -122 1 -205 -21 -52 -13 -98 -22 -101 -18 -4 4
-10 21 -13 38 -7 31 -5 33 71 77 315 182 530 423 609 682 13 43 19 93 19 175
0 111 -1 118 -33 183 -39 78 -86 118 -165 142 -61 18 -177 18 -232 1z m-1228
-764 c87 -28 142 -62 204 -130 130 -140 185 -366 159 -655 -45 -518 -255 -915
-565 -1068 -108 -53 -203 -72 -332 -66 -120 6 -184 31 -220 86 -31 46 -30 100
6 246 16 66 57 242 91 390 97 429 260 1137 271 1177 9 35 12 37 57 41 99 10
266 -1 329 -21z"/>
<path d="M10485 2520 c-170 -10 -322 -19 -337 -19 -22 -1 -29 -7 -37 -38 -20
-70 -16 -83 27 -83 41 0 126 -21 160 -39 64 -34 80 -148 42 -296 -11 -44 -56
-234 -100 -425 -43 -190 -106 -464 -140 -610 -108 -467 -112 -489 -113 -592
-1 -108 -2 -109 -63 -83 -63 26 -78 105 -48 253 18 87 128 555 203 861 35 143
47 209 41 221 -9 16 -27 14 -248 -32 l-239 -49 -49 30 c-222 136 -589 114
-845 -49 -25 -17 -49 -30 -53 -30 -8 0 -1 56 11 86 4 12 -27 14 -206 14 -164
0 -211 3 -211 13 0 7 23 110 50 230 28 120 50 222 50 227 0 6 -95 10 -250 10
l-249 0 -10 -37 c-6 -21 -31 -125 -56 -231 -24 -107 -47 -198 -51 -203 -3 -5
-70 -9 -149 -9 l-143 0 -16 -69 c-9 -39 -16 -75 -16 -80 0 -7 49 -11 141 -11
129 0 140 -1 135 -17 -3 -10 -26 -110 -51 -223 -26 -113 -62 -270 -81 -350
-71 -293 -84 -367 -84 -463 0 -85 3 -100 31 -156 58 -116 163 -171 344 -178
139 -6 257 13 423 69 100 34 127 40 140 30 120 -85 192 -107 352 -107 102 0
138 4 195 22 88 28 213 99 288 163 32 28 62 50 65 50 4 0 18 -20 31 -45 92
-174 344 -227 628 -133 l91 30 45 -26 c87 -52 215 -72 347 -55 86 10 257 62
340 102 41 20 46 26 58 80 8 32 12 60 9 63 -2 3 -31 -2 -63 -10 -191 -49 -300
-18 -320 91 -11 59 6 142 202 993 102 443 201 874 220 957 20 84 33 157 29
163 -8 13 -93 11 -470 -10z m-1064 -993 c96 -51 128 -160 91 -309 -12 -46 -55
-229 -98 -408 -42 -179 -81 -335 -87 -347 -15 -28 -121 -111 -167 -131 -47
-19 -145 -18 -195 2 -99 42 -136 120 -143 302 -15 386 150 792 363 890 70 33
174 33 236 1z m-858 -99 c-152 -162 -259 -375 -293 -588 -23 -149 -6 -343 41
-463 11 -27 17 -52 14 -55 -12 -13 -122 -20 -174 -11 -60 9 -98 32 -119 70
-25 45 -8 177 56 449 33 140 79 338 101 440 23 102 43 191 46 198 3 9 51 12
191 12 l187 0 -50 -52z"/>
<path d="M6729 1699 c-379 -55 -674 -271 -802 -586 -69 -170 -92 -407 -53
-558 57 -221 224 -387 451 -450 81 -23 332 -31 431 -15 134 21 273 78 399 163
71 48 193 163 232 220 l28 40 -50 43 c-27 24 -53 44 -56 44 -4 0 -29 -25 -55
-55 -134 -157 -338 -246 -535 -232 -193 13 -292 133 -315 383 l-7 70 104 12
c234 27 517 101 667 173 103 50 206 143 245 223 35 71 49 169 35 247 -25 146
-145 236 -365 274 -91 16 -261 18 -354 4z m83 -119 c90 -26 145 -144 136 -299
-9 -152 -74 -249 -209 -311 -73 -33 -226 -70 -296 -70 l-42 0 6 38 c44 305
138 523 265 613 25 18 55 30 98 38 3 0 21 -4 42 -9z"/>
</g>
</svg>
